<svg width="28" height="28" fill="none" xmlns="http://www.w3.org/2000/svg"><path fill-rule="evenodd" clip-rule="evenodd" d="M14.41 8c-1.094 0-1.98.938-1.98 2.095 0 1.157.886 2.095 1.98 2.095 1.092 0 1.978-.938 1.978-2.095C16.388 8.938 15.502 8 14.41 8zm-3.598 2.095c0-2.104 1.61-3.81 3.597-3.81 1.987 0 3.598 1.706 3.598 3.81s-1.61 3.81-3.598 3.81c-1.987 0-3.598-1.706-3.598-3.81zm2.203 6.025c-1.862 0-3.373 1.598-3.373 3.57v.739c0 .473-.362.857-.809.857-.447 0-.81-.384-.81-.857v-.738c0-2.92 2.236-5.286 4.992-5.286h2.789c2.757 0 4.992 2.366 4.992 5.286v.738c0 .473-.363.857-.81.857-.447 0-.81-.384-.81-.857v-.738c0-1.973-1.51-3.572-3.372-3.572h-2.789z" fill="#fff"/><circle cx="14" cy="14" r="13" stroke="#fff" stroke-width="2"/></svg>