<svg width="9" height="14" fill="none" xmlns="http://www.w3.org/2000/svg"><path fill-rule="evenodd" clip-rule="evenodd" d="M4.158.22c2.297 0 4.159 1.833 4.159 4.095 0 .518-.164 1.144-.492 1.877l-.109.235c-.133.278-.289.57-.467.878l-.157.267-.083.136-.175.278-.091.142-.19.288-.202.296-.105.15-.218.307-.113.155-.234.317-.245.325-.127.164-.26.335-.273.342a.792.792 0 01-1.192.049l-.043-.049-.137-.172-.267-.338a40.343 40.343 0 01-.256-.331l-.245-.325-.234-.317a31.172 31.172 0 01-.113-.155l-.218-.307-.105-.15-.202-.296-.19-.288-.091-.142-.175-.278a18.391 18.391 0 01-.083-.136l-.158-.267A13.53 13.53 0 01.6 6.427l-.109-.235C.164 5.459 0 4.833 0 4.315 0 2.053 1.862.219 4.158.219zm0 .593C2.188.813.594 2.383.594 4.315c0 .545.23 1.267.69 2.154l.126.235.136.243.072.124.152.254c.078.128.16.26.247.394l.178.273.189.28.098.142.204.29.215.298.112.151.23.309.242.316.125.16.257.326.137.171a.198.198 0 00.308 0l.263-.33.253-.323.241-.316.231-.309.22-.301.107-.148.205-.291.194-.283.093-.14.178-.272.168-.265.157-.258c.051-.085.1-.168.147-.25l.136-.243c.546-.996.817-1.797.817-2.391C7.722 2.383 6.13.813 4.158.813zm0 2.052a1.512 1.512 0 110 3.025 1.512 1.512 0 010-3.025zm0 .594a.918.918 0 100 1.837.918.918 0 000-1.837zm.095 8.776c.71 0 1.372-.198 1.799-.539.305-.243.482-.553.482-.892a.297.297 0 00-.591-.04l-.003.04c0 .14-.084.289-.258.428-.314.25-.845.409-1.43.409-.579 0-1.105-.156-1.42-.403-.16-.124-.246-.258-.264-.386l-.003-.048a.297.297 0 10-.594 0c0 .344.182.657.495.902.428.335 1.083.529 1.787.529zm3.023.285c-.709.534-1.82.85-3.023.85-1.19 0-2.292-.31-3.002-.835-.504-.373-.792-.842-.792-1.353a.297.297 0 01.594 0c0 .302.187.606.551.876.6.443 1.578.718 2.649.718 1.081 0 2.068-.28 2.665-.73.354-.267.535-.567.535-.864a.297.297 0 01.594 0c0 .504-.28.967-.771 1.338z" fill="#fff"/></svg>