<svg width="11" height="11" fill="none" xmlns="http://www.w3.org/2000/svg"><path fill-rule="evenodd" clip-rule="evenodd" d="M6.407.37c-.148 0-.268.112-.268.251 0 .14.12.252.268.252 1.92 0 3.482 1.467 3.482 3.27 0 .14.12.252.268.252.148 0 .268-.112.268-.251C10.425 2.063 8.622.37 6.407.37zM8.43 6.484l1.727 1.658c.357.343.357.9 0 1.243l-.432.415c-.71.68-2.2.637-3.192.453-.902-.167-2.641-.664-4.15-2.111a7.932 7.932 0 01-2.24-4.006C-.15 2.765.014 1.579.574 1.04l.432-.414a.945.945 0 011.296 0l1.727 1.657c.358.343.358.9 0 1.243l-.432.415a.855.855 0 000 1.243l1.81 1.712a.945.945 0 001.296.002l.432-.415a.943.943 0 011.296 0zM1.87 1.041a.315.315 0 00-.432 0l-.215.206 2.159 2.072.215-.206a.286.286 0 000-.415L1.87 1.041zm4.78 8.637c-.834-.155-2.44-.614-3.834-1.95a7.347 7.347 0 01-2.074-3.71C.512 2.945.607 2.139.832 1.7l2.14 2.054A1.424 1.424 0 003.167 5.6l1.809 1.713c.521.5 1.33.562 1.923.185L9.04 9.555c-.653.317-1.668.257-2.391.123zm2.862-.501l.215-.206a.285.285 0 000-.415L7.999 6.9a.314.314 0 00-.432 0l-.214.206 2.159 2.072zM6.139 1.921c0-.125.11-.227.244-.227 1.483 0 2.689 1.118 2.689 2.492 0 .125-.11.226-.245.226s-.244-.101-.244-.226c0-1.124-.987-2.039-2.2-2.039-.135 0-.244-.101-.244-.226zm.197 1.098c-.109 0-.197.08-.197.178 0 .098.088.178.197.178.544 0 .987.4.987.891 0 .099.089.179.198.179.109 0 .197-.08.197-.179 0-.688-.62-1.247-1.382-1.247zM6.14 4.39c0-.026.025-.047.056-.047.093 0 .17.063.17.142 0 .026-.026.047-.057.047-.031 0-.056-.021-.056-.047s-.026-.048-.057-.048c-.031 0-.056-.02-.056-.047z" fill="#fff"/></svg>