<svg width="24" height="24" fill="none" xmlns="http://www.w3.org/2000/svg"><path d="M20 12a1.02 1.02 0 01-.712-.288 1.112 1.112 0 01-.363-.712c-.217-1.55-.87-2.871-1.962-3.963C15.871 5.946 14.55 5.292 13 5.075a1.139 1.139 0 01-.712-.35A1.009 1.009 0 0112 4c0-.283.1-.521.3-.713.2-.191.433-.27.7-.237 2.1.233 3.892 1.092 5.375 2.575S20.717 8.9 20.95 11a.82.82 0 01-.238.7c-.191.2-.429.3-.712.3zm-4.175 0a.834.834 0 01-.575-.225 1.37 1.37 0 01-.375-.6 2.89 2.89 0 00-.762-1.288 2.89 2.89 0 00-1.288-.762 1.37 1.37 0 01-.6-.375.866.866 0 01-.225-.6c0-.333.117-.604.35-.813.233-.208.492-.279.775-.212a4.924 4.924 0 012.413 1.337 4.924 4.924 0 011.337 2.413c.067.283-.008.542-.225.775-.217.233-.492.35-.825.35zm4.125 9c-2.15 0-4.246-.48-6.287-1.438a19.045 19.045 0 01-5.425-3.8 19.045 19.045 0 01-3.8-5.425C3.479 8.296 3 6.2 3 4.05c0-.3.1-.55.3-.75.2-.2.45-.3.75-.3H8.1a.96.96 0 01.625.225.88.88 0 01.325.575l.65 3.5c.033.233.03.446-.012.637a1.027 1.027 0 01-.288.513L7 10.9c.7 1.2 1.575 2.325 2.625 3.375A18.293 18.293 0 0013.1 17l2.35-2.35a1.4 1.4 0 01.588-.338c.241-.075.479-.095.712-.062l3.45.7c.233.05.425.162.575.337.15.175.225.38.225.613v4.05c0 .3-.1.55-.3.75-.2.2-.45.3-.75.3z" fill="#302929"/></svg>