<svg width="22" height="22" fill="none" xmlns="http://www.w3.org/2000/svg"><path fill-rule="evenodd" clip-rule="evenodd" d="M6.872.034h7.944a6.621 6.621 0 016.621 6.62V14.6a6.621 6.621 0 01-6.62 6.62H6.871A6.621 6.621 0 01.25 14.6V6.654A6.621 6.621 0 016.87.034zm7.944 19.2a4.64 4.64 0 004.635-4.635V6.654a4.64 4.64 0 00-4.635-4.634H6.872a4.64 4.64 0 00-4.635 4.634V14.6a4.64 4.64 0 004.635 4.634h7.944zM5.44 10.625a5.405 5.405 0 1110.81 0 5.405 5.405 0 01-10.81 0zm2.027 0a3.383 3.383 0 003.377 3.378 3.383 3.383 0 003.378-3.378 3.382 3.382 0 00-3.378-3.378 3.382 3.382 0 00-3.377 3.378zm8.998-4.971a.649.649 0 100-1.297.649.649 0 000 1.297z" fill="#fff"/></svg>