<svg width="33" height="33" fill="none" xmlns="http://www.w3.org/2000/svg"><path d="M29.813 32.484l-10.5-10.515a11.167 11.167 0 01-3.235 1.784 11.414 11.414 0 01-3.89.657c-3.407 0-6.29-1.181-8.648-3.544C1.18 18.503 0 15.616 0 12.205c0-3.411 1.18-6.298 3.54-8.662C5.899 1.181 8.781 0 12.188 0c3.406 0 6.289 1.181 8.649 3.543 2.359 2.364 3.538 5.25 3.538 8.662a11.46 11.46 0 01-.656 3.896 11.194 11.194 0 01-1.782 3.239l10.547 10.562c.344.344.516.767.516 1.267 0 .501-.188.94-.563 1.315-.343.344-.78.516-1.312.516-.531 0-.969-.172-1.313-.516zm-17.625-11.83c2.343 0 4.336-.82 5.977-2.463 1.64-1.644 2.46-3.64 2.46-5.986 0-2.347-.82-4.343-2.46-5.986-1.641-1.643-3.634-2.464-5.977-2.464-2.344 0-4.337.822-5.978 2.464-1.64 1.643-2.46 3.639-2.46 5.986s.82 4.342 2.46 5.986c1.641 1.642 3.634 2.463 5.978 2.463z" fill="#8EC038"/></svg>