<svg width="20" height="19" fill="none" xmlns="http://www.w3.org/2000/svg"><path d="M19.49.57a1.491 1.491 0 00-1.504-.248L.94 6.976a1.457 1.457 0 00-.721.591 1.44 1.44 0 00-.212.905c.028.316.158.615.37.852.214.236.499.398.812.46l4.33.854v5.378a1.462 1.462 0 00.915 1.359c.179.071.37.109.563.11a1.466 1.466 0 001.044-.432l2.4-2.377 3.63 3.176a1.483 1.483 0 002.419-.771l3.472-15.07A1.46 1.46 0 0019.49.57zM6.084 9.252l-4.599-.909 12.891-5.038-8.292 5.947zm.914 6.764v-4.35l2.327 2.037-2.327 2.313zm8.052.735l-7.61-6.656L18.401 2.23l-3.352 14.52z" fill="#fff"/></svg>