<svg width="34" height="35" fill="none" xmlns="http://www.w3.org/2000/svg"><path d="M31.834 19.66a9.492 9.492 0 00-.902-.962 5.141 5.141 0 00.834-2.817 5.2 5.2 0 00-.559-2.345.491.491 0 00-.672-.216.52.52 0 00-.21.691c.295.582.445 1.211.445 1.87 0 .798-.226 1.543-.616 2.17a9.293 9.293 0 00-.75-.503 3.156 3.156 0 00.472-1.667c0-1.72-1.36-3.12-3.032-3.12a2.94 2.94 0 00-1.369.337v-1.004a3.832 3.832 0 013.446.358.49.49 0 00.687-.163.522.522 0 00-.159-.707 4.807 4.807 0 00-2.605-.768c-.475 0-.934.071-1.369.201V7.044c.894-.007 1.62-.758 1.62-1.68 0-.926-.732-1.68-1.631-1.68l.72-2.551a.899.899 0 00-.138-.779.845.845 0 00-.688-.354h-6.124a.845.845 0 00-.69.357.899.899 0 00-.134.783l.741 2.543h-1.955c-.314 0-.6.178-.745.465a.886.886 0 00.054.896l.687 1.02a2.2 2.2 0 001.821.98h.224v8.111c0 .61-.42 1.13-1 1.236a9.133 9.133 0 00-4.323 2.082c-.302-2.195-.95-4.142-1.878-5.563a.697.697 0 00-.584-.32.697.697 0 00-.584.32c-1.315 2.014-2.07 5.082-2.07 8.419 0 .504.019 1.003.054 1.494a20.43 20.43 0 00-1.309-1.371.488.488 0 00-.704.026.524.524 0 00.026.725 18.696 18.696 0 012.849 3.439c-.1.073-.195.151-.288.234a4.874 4.874 0 00-1-.399l-3.559-3.663a.488.488 0 00-.704 0 .523.523 0 000 .725l2.685 2.764a4.97 4.97 0 00-1.37.262 19.39 19.39 0 01-.44-.438c-1.976-2.034-3.422-4.417-3.945-6.473 1.252.338 2.66 1.06 4.015 2.064a.489.489 0 00.695-.117.522.522 0 00-.113-.715c-1.657-1.228-3.334-2.038-4.851-2.344a.69.69 0 00-.633.199.737.737 0 00-.193.651c.219 1.147.72 2.425 1.45 3.694a19.079 19.079 0 002.87 3.766l.171.172c-1.289.795-2.143 2.164-2.143 3.717 0 2.45 2.123 4.444 4.733 4.444a4.898 4.898 0 002.994-1.007 4.784 4.784 0 002.891 1.005c.857 0 1.694-.252 2.398-.759a7.935 7.935 0 003.395.761h7.048c4.51 0 8.18-3.777 8.18-8.42 0-2.225-.77-4.393-2.166-6.106zm-4.99-5.874c1.123 0 2.036.94 2.036 2.095 0 .444-.135.855-.365 1.194a8.963 8.963 0 00-2.055-.665c-.57-.111-.985-.63-.985-1.233v-.844c.362-.34.842-.547 1.37-.547zm-7.427-12.76h5.76l-.75 2.658h-4.235l-.775-2.658zM18.01 5.479l-.52-.77h7.972c.35 0 .636.294.636.655a.647.647 0 01-.636.655h-6.45c-.4 0-.775-.202-1.002-.54zm-6.559 8.402c1.043 1.834 1.657 4.573 1.657 7.448a19.44 19.44 0 01-.324 3.578 4.459 4.459 0 00-.835-.041v-6.004a.506.506 0 00-.498-.512.506.506 0 00-.498.512v6.169a4.05 4.05 0 00-.362.125 18.26 18.26 0 00-.577-.857 19.76 19.76 0 01-.22-2.97c0-2.875.614-5.614 1.657-7.448zM3.357 29.74c0-1.885 1.677-3.418 3.737-3.418a4 4 0 011.645.35c-1.116 1.693-.896 4.11.596 5.802-.625.43-1.4.685-2.241.685-2.06 0-3.737-1.534-3.737-3.419zm6.856 2.198c-1.456-1.5-1.588-3.804-.294-5.137.58-.596 1.363-.918 2.224-.918.061 0 .123.001.185.004.952.051 1.87.483 2.582 1.216 1.457 1.5 1.589 3.805.294 5.138-1.295 1.333-3.534 1.197-4.99-.303zm15.607 1.22h-7.048a6.95 6.95 0 01-2.595-.5c.146-.183.274-.377.385-.58a6.32 6.32 0 002.21.397h7.048c3.287 0 6.07-2.53 6.47-5.887a.51.51 0 00-.433-.572.501.501 0 00-.555.447c-.34 2.843-2.697 4.987-5.482 4.987h-7.048c-.643 0-1.26-.115-1.834-.324.417-1.58-.035-3.421-1.324-4.747a5.055 5.055 0 00-1.864-1.225 19.95 19.95 0 00.322-2.655c.21-.392.459-.765.744-1.111a6.584 6.584 0 013.84-2.298l7.357.014a6.595 6.595 0 013.787 2.313 6.903 6.903 0 011.374 2.832c.062.276.33.447.598.383a.513.513 0 00.372-.615 7.946 7.946 0 00-1.581-3.26c-1.133-1.389-2.7-2.337-4.41-2.669a.475.475 0 00-.092-.009l-7.448-.014c-.028.001-.058.002-.087.008-1.712.31-3.283 1.236-4.43 2.606-.01-.319-.026-.635-.05-.947A8.192 8.192 0 0118.41 17.4c1.056-.191 1.823-1.136 1.823-2.245v-8.11h4.246v8.132c0 1.096.756 2.038 1.797 2.24 1.86.361 3.564 1.392 4.795 2.902a8.637 8.637 0 011.933 5.446c0 4.077-3.223 7.395-7.184 7.395z" fill="#000"/><path d="M4.599 28.762a.506.506 0 00-.498.512v.934c0 .284.223.513.498.513s.498-.23.498-.513v-.934a.505.505 0 00-.498-.512zm6.167-1.75l-.642.661a.523.523 0 000 .725.49.49 0 00.705 0l.641-.66a.523.523 0 000-.726.488.488 0 00-.704 0z" fill="#000"/></svg>