<svg width="31" height="35" fill="none" xmlns="http://www.w3.org/2000/svg"><path d="M28.782 13.897a14.728 14.728 0 00-3.925-4.483c1.355-1.28 1.868-2.802 1.893-2.876a.69.69 0 00-.35-.838.656.656 0 00-.85.27c-.064.11-.527.834-1.558.834-.358 0-.785-.087-1.287-.318-2.547-1.172-5.243-.723-5.732-.627h-.385C16.015 4.439 14.223.42 12.21.039c-.725-.14-1.346.102-1.704.661-.436.682-.475 1.992.294 3.179.285.438.64 1.061 1.047 1.83-1.138-.058-2.82.03-4.444.777-1.948.895-2.759-.368-2.845-.515a.655.655 0 00-.838-.276.69.69 0 00-.368.823c.024.081.536 1.788 1.898 3.244a14.68 14.68 0 00-3.641 4.42A13.575 13.575 0 000 20.616C0 24.47 1.596 28.09 4.496 30.81 7.378 33.512 11.206 35 15.273 35c4.069 0 7.896-1.488 10.778-4.191 2.9-2.719 4.496-6.34 4.496-10.194 0-2.34-.61-4.663-1.765-6.718zM7.944 7.734c1.828-.841 3.813-.694 4.612-.584l.071.168v.002l.736 1.736a.656.656 0 00.868.356.69.69 0 00.354-.89 97.091 97.091 0 00-.976-2.302c-.683-1.367-1.257-2.41-1.706-3.1-.423-.652-.453-1.41-.289-1.668.024-.036.079-.122.354-.07.908.173 2.501 2.598 3.552 5.406.1.264.345.438.62.438h.898a.674.674 0 00.14-.015c.013-.003.69-.145 1.66-.145.944 0 2.167.135 3.325.668.79.364 1.47.468 2.035.433a5.421 5.421 0 01-.826.72c-1.378.969-3.104 1.16-5.13.57a.652.652 0 00-.684.21.702.702 0 00-.105.726c.102.233.285.42.562.702.51.517 1.35 1.371 1.781 2.79-.667-.291-1.3-.33-1.754-.36-.217-.013-.44-.027-.537-.063l-.065-.023c-1.497-.544-1.72-1.038-1.72-1.284a.68.68 0 00-.67-.684.674.674 0 00-.664.684c0 .587-1.68 1.654-2.367 1.907-.08.03-.162.056-.248.086-.385.128-.847.282-1.388.638.463-1.429 1.279-2.414 1.783-3.022.24-.292.4-.484.487-.684a.701.701 0 00-.105-.726.658.658 0 00-.683-.21c-2.043.596-3.78.307-5.162-.857A6.306 6.306 0 015.66 8.148c.623.087 1.382.001 2.284-.414 1.828-.841-.902.415 0 0zm7.33 25.899c-7.69 0-13.946-5.84-13.946-13.018 0-3.864 1.798-7.463 4.95-9.947a6.18 6.18 0 003.157 1.125c.335.023.67.02 1.005-.003-.749 1.047-1.62 2.636-1.723 4.81a.685.685 0 00.419.669.646.646 0 00.552-.03l.061-.038a.702.702 0 00.136-.125c.985-1.19 1.682-1.423 2.296-1.628.098-.033.191-.065.286-.099.022-.008 1.64-.678 2.583-1.724.631.624 1.546.957 1.948 1.103l.06.022c.274.1.579.12.902.14.715.045 1.525.096 2.261.986.184.223.486.3.75.193a.685.685 0 00.42-.669c-.095-1.983-.834-3.348-1.535-4.259 1.05.076 2.118-.059 3.095-.474.27-.115.533-.247.784-.4a13.417 13.417 0 013.898 4.314 12.354 12.354 0 011.586 6.034c0 7.178-6.256 13.018-13.946 13.018z" fill="#000"/><path d="M15.273 32.26c-6.81 0-12.351-5.224-12.351-11.644 0-.378.297-.684.664-.684.367 0 .664.306.664.684 0 5.666 4.945 10.277 11.023 10.277.367 0 .665.306.665.683a.674.674 0 01-.665.684zm2.745-.3a.674.674 0 01-.665-.684c0-.378.297-.684.664-.684.368 0 .665.306.665.684a.674.674 0 01-.664.683z" fill="#000"/></svg>