<svg width="32" height="32" fill="none" xmlns="http://www.w3.org/2000/svg"><path d="M31.155 24.549a2.91 2.91 0 00-.45-.368.47.47 0 00-.518.783c.54.358.874.974.874 1.625a1.944 1.944 0 01-2.038 1.943.473.473 0 00-.491.491 1.95 1.95 0 01-.568 1.468 1.94 1.94 0 01-2.75 0 1.932 1.932 0 01-.57-1.376c0-.52.202-1.008.57-1.375.257-.258.658-.544.29-.912l-1.856-1.856 1.324-1.324 1.856 1.855a.48.48 0 00.712-.055 1.923 1.923 0 01.986-.713.47.47 0 00-.283-.896c-.41.13-.789.353-1.103.648l-1.66-1.66s-.436-1.096-.508-1.612c-.157-1.11-.172-2.216-.16-3.331.008-.822.016-1.646-.063-2.464-.401-4.152-2.506-7.796-4.201-10.12-1.568-2.15-3.552-4.044-3.586-4.078-1.242-1.242-3.24-1.55-5.624-.866-2.288.656-4.687 2.157-6.756 4.226S1.012 9.05.356 11.338c-.684 2.384-.376 4.382.866 5.624.03.03 1.911 2.006 4.077 3.585 1.906 1.39 3.995 2.559 6.228 3.332.652.226 1.318.417 1.992.566a15.46 15.46 0 003.31.37c1.465.005 2.927-.049 4.386.157.516.072 1.562.497 1.587.502l1.685 1.666a2.864 2.864 0 00-.783 1.975c0 .77.3 1.495.845 2.04.545.545 1.27.845 2.04.845s1.495-.3 2.04-.845c.46-.46.748-1.063.824-1.702a2.893 2.893 0 001.702-.825 2.863 2.863 0 00.845-2.04c0-.77-.3-1.494-.845-2.039zM1.26 11.597c.613-2.138 2.029-4.393 3.987-6.351 1.958-1.958 4.213-3.374 6.351-3.987.746-.214 1.443-.32 2.075-.32 1.096 0 1.998.32 2.626.947.99.99 1.212 2.66.627 4.7-.613 2.138-2.029 4.394-3.987 6.352-1.958 1.958-4.214 3.374-6.351 3.987-2.042.585-3.71.363-4.7-.627-.99-.99-1.213-2.66-.628-4.7zm20.087 12.445a16.606 16.606 0 00-.924-.104 26.88 26.88 0 00-2.651-.071c-1.78.025-3.377-.108-5.083-.603-2.51-.729-4.714-1.932-6.817-3.462a28.994 28.994 0 01-2.07-1.66c.229.028.465.042.71.042.72 0 1.504-.118 2.335-.356 2.288-.656 4.687-2.157 6.756-4.226s3.57-4.468 4.226-6.756c.319-1.112.422-2.14.315-3.045.508.578 1.08 1.274 1.659 2.07 1.62 2.226 3.632 5.706 4.012 9.64.188 1.94-.046 3.894.228 5.835.077.55.251 1.037.428 1.476l-1.648 1.648c-.439-.177-.926-.35-1.476-.428z" fill="#000"/><path d="M7.123 15.842c1.752-.588 3.62-1.816 5.262-3.458 1.641-1.641 2.87-3.51 3.458-5.261.625-1.862.461-3.396-.462-4.32C13.535.957 9.326 2.273 5.8 5.8a17.101 17.101 0 00-1.497 1.708.47.47 0 00.747.57c.425-.557.9-1.1 1.414-1.613 3.049-3.05 6.828-4.421 8.253-2.997.648.649.734 1.872.236 3.357-.544 1.616-1.691 3.355-3.232 4.896-1.541 1.54-3.28 2.689-4.897 3.232-1.484.499-2.708.413-3.356-.236-.882-.881-.714-2.752.438-4.882a.47.47 0 10-.826-.447c-1.378 2.548-1.481 4.788-.276 5.994.555.554 1.33.835 2.264.835.62 0 1.312-.124 2.055-.374z" fill="#000"/><path d="M10.42 9.16c.713 0 1.591-.453 2.344-1.274 1.11-1.21 1.4-2.625.675-3.29-.383-.35-.954-.412-1.61-.174-.552.201-1.123.603-1.609 1.133-1.11 1.21-1.4 2.624-.675 3.29.234.213.535.316.874.316zm.493-2.97c.38-.415.83-.737 1.237-.885.41-.15.795-.117.741.404-.06.577-.44 1.127-.82 1.542-.788.86-1.66 1.112-1.891.9-.23-.21-.056-1.101.733-1.962z" fill="#000"/></svg>